{
	"asset":{
		"generator":"Khronos glTF Blender I/O v4.0.44",
		"version":"2.0"
	},
	"extensionsUsed":[
		"KHR_materials_emissive_strength"
	],
	"scene":0,
	"scenes":[
		{
			"name":"Scene",
			"nodes":[
				0,
				1,
				2,
				3,
				4,
				5,
				6,
				7,
				8,
				9,
				10,
				11,
				12
			]
		}
	],
	"nodes":[
		{
			"mesh":0,
			"name":"Cube.001",
			"scale":[
				13.94444751739502,
				3.575434684753418,
				8.965683937072754
			],
			"translation":[
				0,
				3.493821620941162,
				0
			]
		},
		{
			"mesh":1,
			"name":"Cube.002",
			"scale":[
				13.94444751739502,
				3.575434684753418,
				8.965683937072754
			],
			"translation":[
				0,
				3.493821620941162,
				0
			]
		},
		{
			"mesh":2,
			"name":"Cube.003",
			"scale":[
				13.94444751739502,
				3.575434684753418,
				8.965683937072754
			],
			"translation":[
				0,
				3.493821620941162,
				0
			]
		},
		{
			"mesh":3,
			"name":"Cube.004",
			"scale":[
				13.94444751739502,
				3.575434684753418,
				8.965683937072754
			],
			"translation":[
				0,
				3.493821620941162,
				0
			]
		},
		{
			"mesh":4,
			"name":"Cube.005",
			"scale":[
				13.94444751739502,
				3.575434684753418,
				8.965683937072754
			],
			"translation":[
				0,
				3.493821620941162,
				0
			]
		},
		{
			"mesh":5,
			"name":"Sphere.002",
			"rotation":[
				0.9999500513076782,
				0.002057800069451332,
				-0.0002571266668383032,
				0.009776605293154716
			],
			"scale":[
				0.4608529806137085,
				0.05094332993030548,
				0.8911638259887695
			],
			"translation":[
				1.6601064205169678,
				7.069918155670166,
				5.979746341705322
			]
		},
		{
			"mesh":6,
			"name":"Sphere.001",
			"rotation":[
				-0.9998084902763367,
				0.019506681710481644,
				0.000686284271068871,
				0.0014191208174452186
			],
			"scale":[
				0.4608529806137085,
				0.05094332993030548,
				0.8911638259887695
			],
			"translation":[
				1.669504165649414,
				7.05117654800415,
				-6.083807945251465
			]
		},
		{
			"mesh":7,
			"name":"Sphere.003",
			"rotation":[
				0.9999479055404663,
				-0.005726935807615519,
				-0.008373787626624107,
				0.0012322103139013052
			],
			"scale":[
				0.4608529806137085,
				0.05094332993030548,
				0.8911638259887695
			],
			"translation":[
				-9.975656509399414,
				7.081812381744385,
				0.6904615759849548
			]
		},
		{
			"mesh":8,
			"name":"Sphere.004",
			"rotation":[
				0.9999498724937439,
				-0.0021953019313514233,
				-0.0002987068728543818,
				0.00977527815848589
			],
			"scale":[
				0.4657258987426758,
				0.14036621153354645,
				0.892289936542511
			],
			"translation":[
				10.141815185546875,
				7.053328990936279,
				0.7212796211242676
			]
		},
		{
			"mesh":9,
			"name":"box",
			"rotation":[
				0,
				-0.8544538021087646,
				0,
				0.5195273756980896
			],
			"translation":[
				20.76007080078125,
				1.0035148859024048,
				-13.332744598388672
			]
		},
		{
			"mesh":10,
			"name":"buttons",
			"rotation":[
				0.6869613528251648,
				0.6869611740112305,
				0.1675833910703659,
				0.1675834059715271
			],
			"translation":[
				21.152502059936523,
				0.10218441486358643,
				-12.406402587890625
			]
		},
		{
			"mesh":11,
			"name":"screen",
			"rotation":[
				-0.9717088937759399,
				-0.007555517368018627,
				-0.23594343662261963,
				0.007445960305631161
			],
			"scale":[
				-0.11037731915712357,
				-0.6166176795959473,
				-0.5429521799087524
			],
			"translation":[
				21.431474685668945,
				1.0907448530197144,
				-12.982389450073242
			]
		},
		{
			"mesh":12,
			"name":"Plane",
			"translation":[
				28.81330108642578,
				1.5709691047668457,
				-0.0779275894165039
			]
		}
	],
	"materials":[
		{
			"doubleSided":true,
			"name":"floor",
			"pbrMetallicRoughness":{
				"baseColorTexture":{
					"index":2
				},
				"normalTexture":{
					"index":4
				},
				"metallicFactor":0,
				"roughnessFactor":0.5
			}
		},
		{
			"doubleSided":true,
			"name":"walls",
			"pbrMetallicRoughness":{
				"baseColorTexture":{
					"index":0
				},
				"normalTexture":{
					"index":3
				},
				"metallicFactor":0,
				"roughnessFactor":0.5
			}
		},
		{
			"doubleSided":true,
			"emissiveFactor":[
				0.8877608776092529,
				1,
				0.6774082779884338
			],
			"extensions":{
				"KHR_materials_emissive_strength":{
					"emissiveStrength":1.0000004768371582
				}
			},
			"name":"lights",
			"pbrMetallicRoughness":{
				"baseColorTexture":{
					"index":1
				},
				"baseColorFactor":[
					0.8053138256072998,
					0.6980913877487183,
					0.49764764308929443,
					1
				],
				"metallicFactor":0,
				"roughnessFactor":0.5
			}
		},
		{
			"doubleSided":true,
			"name":"Material.001",
			"pbrMetallicRoughness":{
				"metallicFactor":0.3307393193244934,
				"roughnessFactor":0.5
			}
		},
		{
			"doubleSided":true,
			"name":"Material.002",
			"pbrMetallicRoughness":{
				"baseColorFactor":[
					0.9617955684661865,
					1,
					0.9528297185897827,
					1
				],
				"metallicFactor":0,
				"roughnessFactor":0.5
			}
		}
	],
	"meshes":[
		{
			"name":"Cube.001",
			"primitives":[
				{
					"attributes":{
						"POSITION":0,
						"NORMAL":1,
						"TEXCOORD_0":2,
						"TANGENT":3
					},
					"indices":4,
					"material":0
				}
			]
		},
		{
			"name":"Cube.003",
			"primitives":[
				{
					"attributes":{
						"POSITION":5,
						"NORMAL":6,
						"TEXCOORD_0":7,
						"TANGENT":8
					},
					"indices":9,
					"material":1
				}
			]
		},
		{
			"name":"Cube.004",
			"primitives":[
				{
					"attributes":{
						"POSITION":10,
						"NORMAL":11,
						"TEXCOORD_0":12,
						"TANGENT":13
					},
					"indices":9,
					"material":1
				}
			]
		},
		{
			"name":"Cube.006",
			"primitives":[
				{
					"attributes":{
						"POSITION":14,
						"NORMAL":15,
						"TEXCOORD_0":16,
						"TANGENT":17
					},
					"indices":18,
					"material":1
				}
			]
		},
		{
			"name":"Cube.007",
			"primitives":[
				{
					"attributes":{
						"POSITION":19,
						"NORMAL":20,
						"TEXCOORD_0":21,
						"TANGENT":22
					},
					"indices":23,
					"material":1
				}
			]
		},
		{
			"name":"Sphere.002",
			"primitives":[
				{
					"attributes":{
						"POSITION":24,
						"NORMAL":25,
						"TEXCOORD_0":26,
						"TANGENT":27
					},
					"indices":28,
					"material":2
				}
			]
		},
		{
			"name":"Sphere.016",
			"primitives":[
				{
					"attributes":{
						"POSITION":29,
						"NORMAL":30,
						"TEXCOORD_0":31,
						"TANGENT":32
					},
					"indices":28,
					"material":2
				}
			]
		},
		{
			"name":"Sphere.017",
			"primitives":[
				{
					"attributes":{
						"POSITION":33,
						"NORMAL":34,
						"TEXCOORD_0":35,
						"TANGENT":36
					},
					"indices":28,
					"material":2
				}
			]
		},
		{
			"name":"Sphere.018",
			"primitives":[
				{
					"attributes":{
						"POSITION":37,
						"NORMAL":38,
						"TEXCOORD_0":39,
						"TANGENT":40
					},
					"indices":28,
					"material":2
				}
			]
		},
		{
			"name":"Cube.002",
			"primitives":[
				{
					"attributes":{
						"POSITION":41,
						"NORMAL":42,
						"TEXCOORD_0":43,
						"TANGENT":44
					},
					"indices":45,
					"material":3
				}
			]
		},
		{
			"name":"Cylinder.001",
			"primitives":[
				{
					"attributes":{
						"POSITION":46,
						"NORMAL":47,
						"TEXCOORD_0":48
					},
					"indices":49
				}
			]
		},
		{
			"name":"Cube.005",
			"primitives":[
				{
					"attributes":{
						"POSITION":50,
						"NORMAL":51,
						"TEXCOORD_0":52,
						"TANGENT":53
					},
					"indices":54,
					"material":4
				}
			]
		},
		{
			"name":"Plane",
			"primitives":[
				{
					"attributes":{
						"POSITION":55,
						"NORMAL":56,
						"TEXCOORD_0":57,
						"TANGENT":58
					},
					"indices":59,
					"material":2
				}
			]
		}
	],
	"textures":[
		{
			"sampler":0,
			"source":0
		},
		{
			"sampler":0,
			"source":1
		},
		{
			"sampler":0,
			"source":2
		},
		{
			"sampler":0,
			"source":3
		}
		,
		{
			"sampler":0,
			"source":4
		}
	],
	"images":[
		{
			"mimeType":"image/png",
			"name":"stene barva",
			"uri":"stene barva.png"
		},
		{
			"mimeType":"image/png",
			"name":"luci color",
			"uri":"luci color.png"
		},
		{
			"mimeType":"image/png",
			"name":"tla color",
			"uri":"tla color.png"
		},
		{
			"mimeType":"image/png",
			"name":"stene texture",
			"uri":"stene texture.png"
		},
		{
			"mimeType":"image/png",
			"name":"tla texture",
			"uri":"tla texture.png"
		}
	],
	"accessors":[
		{
			"bufferView":0,
			"componentType":5126,
			"count":4,
			"max":[
				1,
				-1,
				1
			],
			"min":[
				-1,
				-1,
				-1
			],
			"type":"VEC3"
		},
		{
			"bufferView":1,
			"componentType":5126,
			"count":4,
			"type":"VEC3"
		},
		{
			"bufferView":2,
			"componentType":5126,
			"count":4,
			"type":"VEC2"
		},
		{
			"bufferView":3,
			"componentType":5126,
			"count":4,
			"type":"VEC4"
		},
		{
			"bufferView":4,
			"componentType":5123,
			"count":6,
			"type":"SCALAR"
		},
		{
			"bufferView":5,
			"componentType":5126,
			"count":4,
			"max":[
				-1,
				1,
				1
			],
			"min":[
				-1,
				-1,
				-1
			],
			"type":"VEC3"
		},
		{
			"bufferView":6,
			"componentType":5126,
			"count":4,
			"type":"VEC3"
		},
		{
			"bufferView":7,
			"componentType":5126,
			"count":4,
			"type":"VEC2"
		},
		{
			"bufferView":8,
			"componentType":5126,
			"count":4,
			"type":"VEC4"
		},
		{
			"bufferView":9,
			"componentType":5123,
			"count":6,
			"type":"SCALAR"
		},
		{
			"bufferView":10,
			"componentType":5126,
			"count":4,
			"max":[
				1,
				1,
				-1
			],
			"min":[
				-1,
				-1,
				-1
			],
			"type":"VEC3"
		},
		{
			"bufferView":11,
			"componentType":5126,
			"count":4,
			"type":"VEC3"
		},
		{
			"bufferView":12,
			"componentType":5126,
			"count":4,
			"type":"VEC2"
		},
		{
			"bufferView":13,
			"componentType":5126,
			"count":4,
			"type":"VEC4"
		},
		{
			"bufferView":14,
			"componentType":5126,
			"count":4,
			"max":[
				1,
				1,
				1
			],
			"min":[
				-1,
				-1,
				1
			],
			"type":"VEC3"
		},
		{
			"bufferView":15,
			"componentType":5126,
			"count":4,
			"type":"VEC3"
		},
		{
			"bufferView":16,
			"componentType":5126,
			"count":4,
			"type":"VEC2"
		},
		{
			"bufferView":17,
			"componentType":5126,
			"count":4,
			"type":"VEC4"
		},
		{
			"bufferView":18,
			"componentType":5123,
			"count":6,
			"type":"SCALAR"
		},
		{
			"bufferView":19,
			"componentType":5126,
			"count":4,
			"max":[
				1,
				1,
				1
			],
			"min":[
				-1,
				1,
				-1
			],
			"type":"VEC3"
		},
		{
			"bufferView":20,
			"componentType":5126,
			"count":4,
			"type":"VEC3"
		},
		{
			"bufferView":21,
			"componentType":5126,
			"count":4,
			"type":"VEC2"
		},
		{
			"bufferView":22,
			"componentType":5126,
			"count":4,
			"type":"VEC4"
		},
		{
			"bufferView":23,
			"componentType":5123,
			"count":6,
			"type":"SCALAR"
		},
		{
			"bufferView":24,
			"componentType":5126,
			"count":1984,
			"max":[
				2.400221109390259,
				0.9132404327392578,
				1.3200069665908813
			],
			"min":[
				-2.400219440460205,
				-0.9132404327392578,
				-1.3200078010559082
			],
			"type":"VEC3"
		},
		{
			"bufferView":25,
			"componentType":5126,
			"count":1984,
			"type":"VEC3"
		},
		{
			"bufferView":26,
			"componentType":5126,
			"count":1984,
			"type":"VEC2"
		},
		{
			"bufferView":27,
			"componentType":5126,
			"count":1984,
			"type":"VEC4"
		},
		{
			"bufferView":28,
			"componentType":5123,
			"count":2880,
			"type":"SCALAR"
		},
		{
			"bufferView":29,
			"componentType":5126,
			"count":1984,
			"max":[
				2.400221109390259,
				0.9132404327392578,
				1.3200069665908813
			],
			"min":[
				-2.400219440460205,
				-0.9132404327392578,
				-1.3200078010559082
			],
			"type":"VEC3"
		},
		{
			"bufferView":30,
			"componentType":5126,
			"count":1984,
			"type":"VEC3"
		},
		{
			"bufferView":31,
			"componentType":5126,
			"count":1984,
			"type":"VEC2"
		},
		{
			"bufferView":32,
			"componentType":5126,
			"count":1984,
			"type":"VEC4"
		},
		{
			"bufferView":33,
			"componentType":5126,
			"count":1984,
			"max":[
				2.400221109390259,
				0.9132404327392578,
				1.3200069665908813
			],
			"min":[
				-2.400219440460205,
				-0.9132404327392578,
				-1.3200078010559082
			],
			"type":"VEC3"
		},
		{
			"bufferView":34,
			"componentType":5126,
			"count":1984,
			"type":"VEC3"
		},
		{
			"bufferView":35,
			"componentType":5126,
			"count":1984,
			"type":"VEC2"
		},
		{
			"bufferView":36,
			"componentType":5126,
			"count":1984,
			"type":"VEC4"
		},
		{
			"bufferView":37,
			"componentType":5126,
			"count":1984,
			"max":[
				2.400221109390259,
				0.9132404327392578,
				1.3200069665908813
			],
			"min":[
				-2.400219440460205,
				-0.9132404327392578,
				-1.3200078010559082
			],
			"type":"VEC3"
		},
		{
			"bufferView":38,
			"componentType":5126,
			"count":1984,
			"type":"VEC3"
		},
		{
			"bufferView":39,
			"componentType":5126,
			"count":1984,
			"type":"VEC2"
		},
		{
			"bufferView":40,
			"componentType":5126,
			"count":1984,
			"type":"VEC4"
		},
		{
			"bufferView":41,
			"componentType":5126,
			"count":162,
			"max":[
				1.0929417610168457,
				1.0859805345535278,
				1.3455969095230103
			],
			"min":[
				-1.0723378658294678,
				-1.0963002443313599,
				-0.815212607383728
			],
			"type":"VEC3"
		},
		{
			"bufferView":42,
			"componentType":5126,
			"count":162,
			"type":"VEC3"
		},
		{
			"bufferView":43,
			"componentType":5126,
			"count":162,
			"type":"VEC2"
		},
		{
			"bufferView":44,
			"componentType":5126,
			"count":162,
			"type":"VEC4"
		},
		{
			"bufferView":45,
			"componentType":5123,
			"count":306,
			"type":"SCALAR"
		},
		{
			"bufferView":46,
			"componentType":5126,
			"count":776,
			"max":[
				0.08832717686891556,
				0.003515413496643305,
				1.498533010482788
			],
			"min":[
				-0.07285194844007492,
				-0.024605289101600647,
				-0.22984156012535095
			],
			"type":"VEC3"
		},
		{
			"bufferView":47,
			"componentType":5126,
			"count":776,
			"type":"VEC3"
		},
		{
			"bufferView":48,
			"componentType":5126,
			"count":776,
			"type":"VEC2"
		},
		{
			"bufferView":49,
			"componentType":5123,
			"count":1332,
			"type":"SCALAR"
		},
		{
			"bufferView":50,
			"componentType":5126,
			"count":730,
			"max":[
				2.4131107330322266,
				1.3133482933044434,
				1.5188274383544922
			],
			"min":[
				-2.4131107330322266,
				-1.3133482933044434,
				-1.5188274383544922
			],
			"type":"VEC3"
		},
		{
			"bufferView":51,
			"componentType":5126,
			"count":730,
			"type":"VEC3"
		},
		{
			"bufferView":52,
			"componentType":5126,
			"count":730,
			"type":"VEC2"
		},
		{
			"bufferView":53,
			"componentType":5126,
			"count":730,
			"type":"VEC4"
		},
		{
			"bufferView":54,
			"componentType":5123,
			"count":2868,
			"type":"SCALAR"
		},
		{
			"bufferView":55,
			"componentType":5126,
			"count":4,
			"max":[
				1,
				0,
				1
			],
			"min":[
				-1,
				0,
				-1
			],
			"type":"VEC3"
		},
		{
			"bufferView":56,
			"componentType":5126,
			"count":4,
			"type":"VEC3"
		},
		{
			"bufferView":57,
			"componentType":5126,
			"count":4,
			"type":"VEC2"
		},
		{
			"bufferView":58,
			"componentType":5126,
			"count":4,
			"type":"VEC4"
		},
		{
			"bufferView":59,
			"componentType":5123,
			"count":6,
			"type":"SCALAR"
		}
	],
	"bufferViews":[
		{
			"buffer":0,
			"byteLength":48,
			"byteOffset":0,
			"target":34962
		},
		{
			"buffer":0,
			"byteLength":48,
			"byteOffset":48,
			"target":34962
		},
		{
			"buffer":0,
			"byteLength":32,
			"byteOffset":96,
			"target":34962
		},
		{
			"buffer":0,
			"byteLength":64,
			"byteOffset":128,
			"target":34962
		},
		{
			"buffer":0,
			"byteLength":12,
			"byteOffset":192,
			"target":34963
		},
		{
			"buffer":0,
			"byteLength":48,
			"byteOffset":204,
			"target":34962
		},
		{
			"buffer":0,
			"byteLength":48,
			"byteOffset":252,
			"target":34962
		},
		{
			"buffer":0,
			"byteLength":32,
			"byteOffset":300,
			"target":34962
		},
		{
			"buffer":0,
			"byteLength":64,
			"byteOffset":332,
			"target":34962
		},
		{
			"buffer":0,
			"byteLength":12,
			"byteOffset":396,
			"target":34963
		},
		{
			"buffer":0,
			"byteLength":48,
			"byteOffset":408,
			"target":34962
		},
		{
			"buffer":0,
			"byteLength":48,
			"byteOffset":456,
			"target":34962
		},
		{
			"buffer":0,
			"byteLength":32,
			"byteOffset":504,
			"target":34962
		},
		{
			"buffer":0,
			"byteLength":64,
			"byteOffset":536,
			"target":34962
		},
		{
			"buffer":0,
			"byteLength":48,
			"byteOffset":600,
			"target":34962
		},
		{
			"buffer":0,
			"byteLength":48,
			"byteOffset":648,
			"target":34962
		},
		{
			"buffer":0,
			"byteLength":32,
			"byteOffset":696,
			"target":34962
		},
		{
			"buffer":0,
			"byteLength":64,
			"byteOffset":728,
			"target":34962
		},
		{
			"buffer":0,
			"byteLength":12,
			"byteOffset":792,
			"target":34963
		},
		{
			"buffer":0,
			"byteLength":48,
			"byteOffset":804,
			"target":34962
		},
		{
			"buffer":0,
			"byteLength":48,
			"byteOffset":852,
			"target":34962
		},
		{
			"buffer":0,
			"byteLength":32,
			"byteOffset":900,
			"target":34962
		},
		{
			"buffer":0,
			"byteLength":64,
			"byteOffset":932,
			"target":34962
		},
		{
			"buffer":0,
			"byteLength":12,
			"byteOffset":996,
			"target":34963
		},
		{
			"buffer":0,
			"byteLength":23808,
			"byteOffset":1008,
			"target":34962
		},
		{
			"buffer":0,
			"byteLength":23808,
			"byteOffset":24816,
			"target":34962
		},
		{
			"buffer":0,
			"byteLength":15872,
			"byteOffset":48624,
			"target":34962
		},
		{
			"buffer":0,
			"byteLength":31744,
			"byteOffset":64496,
			"target":34962
		},
		{
			"buffer":0,
			"byteLength":5760,
			"byteOffset":96240,
			"target":34963
		},
		{
			"buffer":0,
			"byteLength":23808,
			"byteOffset":102000,
			"target":34962
		},
		{
			"buffer":0,
			"byteLength":23808,
			"byteOffset":125808,
			"target":34962
		},
		{
			"buffer":0,
			"byteLength":15872,
			"byteOffset":149616,
			"target":34962
		},
		{
			"buffer":0,
			"byteLength":31744,
			"byteOffset":165488,
			"target":34962
		},
		{
			"buffer":0,
			"byteLength":23808,
			"byteOffset":197232,
			"target":34962
		},
		{
			"buffer":0,
			"byteLength":23808,
			"byteOffset":221040,
			"target":34962
		},
		{
			"buffer":0,
			"byteLength":15872,
			"byteOffset":244848,
			"target":34962
		},
		{
			"buffer":0,
			"byteLength":31744,
			"byteOffset":260720,
			"target":34962
		},
		{
			"buffer":0,
			"byteLength":23808,
			"byteOffset":292464,
			"target":34962
		},
		{
			"buffer":0,
			"byteLength":23808,
			"byteOffset":316272,
			"target":34962
		},
		{
			"buffer":0,
			"byteLength":15872,
			"byteOffset":340080,
			"target":34962
		},
		{
			"buffer":0,
			"byteLength":31744,
			"byteOffset":355952,
			"target":34962
		},
		{
			"buffer":0,
			"byteLength":1944,
			"byteOffset":387696,
			"target":34962
		},
		{
			"buffer":0,
			"byteLength":1944,
			"byteOffset":389640,
			"target":34962
		},
		{
			"buffer":0,
			"byteLength":1296,
			"byteOffset":391584,
			"target":34962
		},
		{
			"buffer":0,
			"byteLength":2592,
			"byteOffset":392880,
			"target":34962
		},
		{
			"buffer":0,
			"byteLength":612,
			"byteOffset":395472,
			"target":34963
		},
		{
			"buffer":0,
			"byteLength":9312,
			"byteOffset":396084,
			"target":34962
		},
		{
			"buffer":0,
			"byteLength":9312,
			"byteOffset":405396,
			"target":34962
		},
		{
			"buffer":0,
			"byteLength":6208,
			"byteOffset":414708,
			"target":34962
		},
		{
			"buffer":0,
			"byteLength":2664,
			"byteOffset":420916,
			"target":34963
		},
		{
			"buffer":0,
			"byteLength":8760,
			"byteOffset":423580,
			"target":34962
		},
		{
			"buffer":0,
			"byteLength":8760,
			"byteOffset":432340,
			"target":34962
		},
		{
			"buffer":0,
			"byteLength":5840,
			"byteOffset":441100,
			"target":34962
		},
		{
			"buffer":0,
			"byteLength":11680,
			"byteOffset":446940,
			"target":34962
		},
		{
			"buffer":0,
			"byteLength":5736,
			"byteOffset":458620,
			"target":34963
		},
		{
			"buffer":0,
			"byteLength":48,
			"byteOffset":464356,
			"target":34962
		},
		{
			"buffer":0,
			"byteLength":48,
			"byteOffset":464404,
			"target":34962
		},
		{
			"buffer":0,
			"byteLength":32,
			"byteOffset":464452,
			"target":34962
		},
		{
			"buffer":0,
			"byteLength":64,
			"byteOffset":464484,
			"target":34962
		},
		{
			"buffer":0,
			"byteLength":12,
			"byteOffset":464548,
			"target":34963
		}
	],
	"samplers":[
		{
			"magFilter":9729,
			"minFilter":9987,
			"wrapS":33071,
			"wrapT":33071
		},
		{
			"magFilter":9729,
			"minFilter":9987
		}
	],
	"buffers":[
		{
			"byteLength":464560,
			"uri":"soba.bin"
		}
	]
}
