{
	"asset":{
		"generator":"Khronos glTF Blender I/O v4.0.44",
		"version":"2.0"
	},
	"scene":0,
	"scenes":[
		{
			"name":"Scene",
			"nodes":[
				0,
				1,
				2,
				3,
				4,
				5,
				6,
				7
			]
		}
	],
	"nodes":[
		{
			"mesh":0,
			"name":"donut",
			"translation":[
				-0.011142014525830746,
				0.029108019545674324,
				-0.006179216783493757
			]
		},
		{
			"mesh":1,
			"name":"icing",
			"translation":[
				-0.011142014525830746,
				0.029108019545674324,
				-0.006179216783493757
			]
		},
		{
			"mesh":2,
			"name":"sprinkle",
			"translation":[
				0.028601711615920067,
				0.030873386189341545,
				-0.06157389655709267
			]
		},
		{
			"mesh":3,
			"name":"sprinkle.001",
			"translation":[
				0.03860171139240265,
				0.030873386189341545,
				-0.06157389655709267
			]
		},
		{
			"mesh":4,
			"name":"sprinkle.002",
			"translation":[
				0.033397283405065536,
				0.03127393126487732,
				-0.0641602873802185
			]
		},
		{
			"mesh":5,
			"name":"sprinkle.003",
			"translation":[
				0.045495763421058655,
				0.028819939121603966,
				-0.06686970591545105
			]
		},
		{
			"mesh":6,
			"name":"sprinkle.004",
			"translation":[
				0.051418792456388474,
				0.028102440759539604,
				-0.06859728693962097
			]
		},
		{
			"mesh":7,
			"name":"Plane",
			"translation":[
				0.04045741632580757,
				0.03180065006017685,
				-0.058935362845659256
			]
		}
	],
	"materials":[
		{
			"doubleSided":true,
			"name":"donut",
			"pbrMetallicRoughness":{
				"baseColorTexture":{
					"index":1
				},
				"normalTexture":{
					"index":3
				},
				"metallicFactor":0,
				"roughnessFactor":0.5
			}
		},
		{
			"doubleSided":true,
			"name":"coating",
			"pbrMetallicRoughness":{
				"baseColorTexture":{
					"index":0
				},
				"baseColorFactor":[
					0.14976663887500763,
					0,
					0.1229010820388794,
					1
				],
				"metallicFactor":0,
				"roughnessFactor":0.2267441749572754
			}
		},
		{
			"doubleSided":true,
			"name":"sprinkles",
			"pbrMetallicRoughness":{
				"baseColorTexture":{
					"index":2
				},
				"metallicFactor":0,
				"roughnessFactor":0.5
			}
		}
	],
	"meshes":[
		{
			"name":"Torus",
			"primitives":[
				{
					"attributes":{
						"POSITION":0,
						"NORMAL":1,
						"TEXCOORD_0":2,
						"TANGENT":3
					},
					"indices":4,
					"material":0
				}
			]
		},
		{
			"name":"Torus.001",
			"primitives":[
				{
					"attributes":{
						"POSITION":5,
						"NORMAL":6,
						"TEXCOORD_0":7,
						"TANGENT":8
					},
					"indices":9,
					"material":1
				}
			]
		},
		{
			"name":"Cylinder",
			"primitives":[
				{
					"attributes":{
						"POSITION":10,
						"NORMAL":11,
						"TEXCOORD_0":12
					},
					"indices":13,
					"material":2
				}
			]
		},
		{
			"name":"Cylinder.001",
			"primitives":[
				{
					"attributes":{
						"POSITION":14,
						"NORMAL":15,
						"TEXCOORD_0":16
					},
					"indices":17,
					"material":2
				}
			]
		},
		{
			"name":"Cylinder.002",
			"primitives":[
				{
					"attributes":{
						"POSITION":18,
						"NORMAL":19,
						"TEXCOORD_0":20
					},
					"indices":13,
					"material":2
				}
			]
		},
		{
			"name":"Cylinder.003",
			"primitives":[
				{
					"attributes":{
						"POSITION":21,
						"NORMAL":22,
						"TEXCOORD_0":23
					},
					"indices":24,
					"material":2
				}
			]
		},
		{
			"name":"Cylinder.004",
			"primitives":[
				{
					"attributes":{
						"POSITION":25,
						"NORMAL":26,
						"TEXCOORD_0":27
					},
					"indices":28,
					"material":2
				}
			]
		},
		{
			"name":"Plane",
			"primitives":[
				{
					"attributes":{
						"POSITION":29,
						"NORMAL":30,
						"TEXCOORD_0":31,
						"TANGENT":32
					},
					"indices":33,
					"material":1
				}
			]
		}
	],
	"textures":[
		{
			"sampler":0,
			"source":0
		},
		{
			"sampler":0,
			"source":1
		},
		{
			"sampler":0,
			"source":2
		},
		{
			"sampler":0,
			"source":3
		}
	],
	"images":[
		{
			"mimeType":"image/png",
			"name":"coating color",
			"uri":"coating color.png"
		},
		{
			"mimeType":"image/png",
			"name":"donut color",
			"uri":"donut color.png"
		},
		{
			"mimeType":"image/png",
			"name":"sprinkles",
			"uri":"sprinkles.png"
		},
		{
			"mimeType":"image/png",
			"name":"donut texture",
			"uri":"donut texture.png"
		}
	],
	"accessors":[
		{
			"bufferView":0,
			"componentType":5126,
			"count":1927,
			"max":[
				0.05007864534854889,
				0.01924034394323826,
				0.049902092665433884
			],
			"min":[
				-0.05178551748394966,
				-0.020060446113348007,
				-0.04973610118031502
			],
			"type":"VEC3"
		},
		{
			"bufferView":1,
			"componentType":5126,
			"count":1927,
			"type":"VEC3"
		},
		{
			"bufferView":2,
			"componentType":5126,
			"count":1927,
			"type":"VEC2"
		},
		{
			"bufferView":3,
			"componentType":5126,
			"count":1927,
			"type":"VEC4"
		},
		{
			"bufferView":4,
			"componentType":5123,
			"count":9612,
			"type":"SCALAR"
		},
		{
			"bufferView":5,
			"componentType":5126,
			"count":25215,
			"max":[
				0.05198639631271362,
				0.022909097373485565,
				0.05037464573979378
			],
			"min":[
				-0.050777751952409744,
				-0.01080627366900444,
				-0.051092617213726044
			],
			"type":"VEC3"
		},
		{
			"bufferView":6,
			"componentType":5126,
			"count":25215,
			"type":"VEC3"
		},
		{
			"bufferView":7,
			"componentType":5126,
			"count":25215,
			"type":"VEC2"
		},
		{
			"bufferView":8,
			"componentType":5126,
			"count":25215,
			"type":"VEC4"
		},
		{
			"bufferView":9,
			"componentType":5123,
			"count":144318,
			"type":"SCALAR"
		},
		{
			"bufferView":10,
			"componentType":5126,
			"count":52,
			"max":[
				0.0011126116150990129,
				0.0011126118479296565,
				0.004588081035763025
			],
			"min":[
				-0.0011126116150990129,
				-0.0011126118479296565,
				-0.004588081035763025
			],
			"type":"VEC3"
		},
		{
			"bufferView":11,
			"componentType":5126,
			"count":52,
			"type":"VEC3"
		},
		{
			"bufferView":12,
			"componentType":5126,
			"count":52,
			"type":"VEC2"
		},
		{
			"bufferView":13,
			"componentType":5123,
			"count":180,
			"type":"SCALAR"
		},
		{
			"bufferView":14,
			"componentType":5126,
			"count":61,
			"max":[
				0.0020418213680386543,
				0.0023276573047041893,
				0.003413863480091095
			],
			"min":[
				-0.0013176349457353354,
				-0.0010369723895564675,
				-0.007024496328085661
			],
			"type":"VEC3"
		},
		{
			"bufferView":15,
			"componentType":5126,
			"count":61,
			"type":"VEC3"
		},
		{
			"bufferView":16,
			"componentType":5126,
			"count":61,
			"type":"VEC2"
		},
		{
			"bufferView":17,
			"componentType":5123,
			"count":228,
			"type":"SCALAR"
		},
		{
			"bufferView":18,
			"componentType":5126,
			"count":52,
			"max":[
				0.0011126116150990129,
				0.0011126118479296565,
				0.004588081035763025
			],
			"min":[
				-0.0011192044476047158,
				-0.0011213230900466442,
				-0.00024622026830911636
			],
			"type":"VEC3"
		},
		{
			"bufferView":19,
			"componentType":5126,
			"count":52,
			"type":"VEC3"
		},
		{
			"bufferView":20,
			"componentType":5126,
			"count":52,
			"type":"VEC2"
		},
		{
			"bufferView":21,
			"componentType":5126,
			"count":79,
			"max":[
				0.0010682493448257446,
				0.0015208611730486155,
				0.003789882641285658
			],
			"min":[
				-0.002101792022585869,
				-0.0010451509151607752,
				-0.0032266564667224884
			],
			"type":"VEC3"
		},
		{
			"bufferView":22,
			"componentType":5126,
			"count":79,
			"type":"VEC3"
		},
		{
			"bufferView":23,
			"componentType":5126,
			"count":79,
			"type":"VEC2"
		},
		{
			"bufferView":24,
			"componentType":5123,
			"count":324,
			"type":"SCALAR"
		},
		{
			"bufferView":25,
			"componentType":5126,
			"count":79,
			"max":[
				0.0018815684597939253,
				0.0011126118479296565,
				0.004588081035763025
			],
			"min":[
				-0.0011126116150990129,
				-0.0013932136353105307,
				-0.004728452768176794
			],
			"type":"VEC3"
		},
		{
			"bufferView":26,
			"componentType":5126,
			"count":79,
			"type":"VEC3"
		},
		{
			"bufferView":27,
			"componentType":5126,
			"count":79,
			"type":"VEC2"
		},
		{
			"bufferView":28,
			"componentType":5123,
			"count":324,
			"type":"SCALAR"
		},
		{
			"bufferView":29,
			"componentType":5126,
			"count":4,
			"max":[
				1,
				0,
				1
			],
			"min":[
				-1,
				0,
				-1
			],
			"type":"VEC3"
		},
		{
			"bufferView":30,
			"componentType":5126,
			"count":4,
			"type":"VEC3"
		},
		{
			"bufferView":31,
			"componentType":5126,
			"count":4,
			"type":"VEC2"
		},
		{
			"bufferView":32,
			"componentType":5126,
			"count":4,
			"type":"VEC4"
		},
		{
			"bufferView":33,
			"componentType":5123,
			"count":6,
			"type":"SCALAR"
		}
	],
	"bufferViews":[
		{
			"buffer":0,
			"byteLength":23124,
			"byteOffset":0,
			"target":34962
		},
		{
			"buffer":0,
			"byteLength":23124,
			"byteOffset":23124,
			"target":34962
		},
		{
			"buffer":0,
			"byteLength":15416,
			"byteOffset":46248,
			"target":34962
		},
		{
			"buffer":0,
			"byteLength":30832,
			"byteOffset":61664,
			"target":34962
		},
		{
			"buffer":0,
			"byteLength":19224,
			"byteOffset":92496,
			"target":34963
		},
		{
			"buffer":0,
			"byteLength":302580,
			"byteOffset":111720,
			"target":34962
		},
		{
			"buffer":0,
			"byteLength":302580,
			"byteOffset":414300,
			"target":34962
		},
		{
			"buffer":0,
			"byteLength":201720,
			"byteOffset":716880,
			"target":34962
		},
		{
			"buffer":0,
			"byteLength":403440,
			"byteOffset":918600,
			"target":34962
		},
		{
			"buffer":0,
			"byteLength":288636,
			"byteOffset":1322040,
			"target":34963
		},
		{
			"buffer":0,
			"byteLength":624,
			"byteOffset":1610676,
			"target":34962
		},
		{
			"buffer":0,
			"byteLength":624,
			"byteOffset":1611300,
			"target":34962
		},
		{
			"buffer":0,
			"byteLength":416,
			"byteOffset":1611924,
			"target":34962
		},
		{
			"buffer":0,
			"byteLength":360,
			"byteOffset":1612340,
			"target":34963
		},
		{
			"buffer":0,
			"byteLength":732,
			"byteOffset":1612700,
			"target":34962
		},
		{
			"buffer":0,
			"byteLength":732,
			"byteOffset":1613432,
			"target":34962
		},
		{
			"buffer":0,
			"byteLength":488,
			"byteOffset":1614164,
			"target":34962
		},
		{
			"buffer":0,
			"byteLength":456,
			"byteOffset":1614652,
			"target":34963
		},
		{
			"buffer":0,
			"byteLength":624,
			"byteOffset":1615108,
			"target":34962
		},
		{
			"buffer":0,
			"byteLength":624,
			"byteOffset":1615732,
			"target":34962
		},
		{
			"buffer":0,
			"byteLength":416,
			"byteOffset":1616356,
			"target":34962
		},
		{
			"buffer":0,
			"byteLength":948,
			"byteOffset":1616772,
			"target":34962
		},
		{
			"buffer":0,
			"byteLength":948,
			"byteOffset":1617720,
			"target":34962
		},
		{
			"buffer":0,
			"byteLength":632,
			"byteOffset":1618668,
			"target":34962
		},
		{
			"buffer":0,
			"byteLength":648,
			"byteOffset":1619300,
			"target":34963
		},
		{
			"buffer":0,
			"byteLength":948,
			"byteOffset":1619948,
			"target":34962
		},
		{
			"buffer":0,
			"byteLength":948,
			"byteOffset":1620896,
			"target":34962
		},
		{
			"buffer":0,
			"byteLength":632,
			"byteOffset":1621844,
			"target":34962
		},
		{
			"buffer":0,
			"byteLength":648,
			"byteOffset":1622476,
			"target":34963
		},
		{
			"buffer":0,
			"byteLength":48,
			"byteOffset":1623124,
			"target":34962
		},
		{
			"buffer":0,
			"byteLength":48,
			"byteOffset":1623172,
			"target":34962
		},
		{
			"buffer":0,
			"byteLength":32,
			"byteOffset":1623220,
			"target":34962
		},
		{
			"buffer":0,
			"byteLength":64,
			"byteOffset":1623252,
			"target":34962
		},
		{
			"buffer":0,
			"byteLength":12,
			"byteOffset":1623316,
			"target":34963
		}
	],
	"samplers":[
		{
			"magFilter":9729,
			"minFilter":9987,
			"wrapS":33071,
			"wrapT":33071
		}
	],
	"buffers":[
		{
			"byteLength":1623328,
			"uri":"donut.bin"
		}
	]
}
