{
    "asset" : {
        "generator" : "Khronos glTF Blender I/O v1.2.75",
        "version" : "2.0"
    },
    "scene" : 0,
    "scenes" : [
        {
            "name" : "Scene",
            "nodes" : [
                0,
                1,
                2,
                3,
                4,
                5,
                6,
                7
            ]
        }
    ],
    "nodes" : [
        {
            "name" : "Light",
            "rotation" : [
                0.15698227286338806,
                0.7511219382286072,
                -0.29270705580711365,
                0.5705216526985168
            ],
            "translation" : [
                4.146324157714844,
                5.589123725891113,
                -1.9228298664093018
            ]
        },
        {
            "name" : "Camera",
            "rotation" : [
                0.483536034822464,
                0.33687159419059753,
                -0.20870360732078552,
                0.7804827094078064
            ],
            "translation" : [
                7.358891487121582,
                4.958309173583984,
                6.925790786743164
            ]
        },
        {
            "mesh" : 0,
            "name" : "Sphere",
            "scale" : [
                1,
                1.104113221168518,
                1
            ]
        },
        {
            "mesh" : 1,
            "name" : "blago",
            "translation" : [
                -4.923403263092041,
                1.1106359958648682,
                0
            ]
        },
        {
            "mesh" : 2,
            "name" : "eye",
            "rotation" : [
                0.011210434138774872,
                -0.009278848767280579,
                -0.7043049335479736,
                -0.709748387336731
            ],
            "scale" : [
                0.18237245082855225,
                0.18237246572971344,
                0.18237246572971344
            ],
            "translation" : [
                0.6673622131347656,
                0.2203923910856247,
                0.31459614634513855
            ]
        },
        {
            "mesh" : 3,
            "name" : "eye.001",
            "rotation" : [
                0.011210434138774872,
                -0.009278848767280579,
                -0.7043049335479736,
                -0.709748387336731
            ],
            "scale" : [
                0.18237245082855225,
                0.18237246572971344,
                0.18237246572971344
            ],
            "translation" : [
                0.6958539485931396,
                0.20608484745025635,
                -0.2903973460197449
            ]
        },
        {
            "mesh" : 4,
            "name" : "eye.002",
            "rotation" : [
                0.5883314609527588,
                -0.75676429271698,
                -0.0833444893360138,
                -0.27244746685028076
            ],
            "scale" : [
                0.21306495368480682,
                0.2130650132894516,
                0.21306496858596802
            ],
            "translation" : [
                0.7334696650505066,
                -0.2064768373966217,
                -0.4304215610027313
            ]
        },
        {
            "mesh" : 5,
            "name" : "glava",
            "scale" : [
                1,
                1.104113221168518,
                1
            ]
        }
    ],
    "materials" : [
        {
            "doubleSided" : true,
            "emissiveFactor" : [
                0,
                0,
                0
            ],
            "name" : "Material.006",
            "normalTexture" : {
                "index" : 0,
                "texCoord" : 0
            },
            "pbrMetallicRoughness" : {
                "baseColorTexture" : {
                    "index" : 1,
                    "texCoord" : 0
                },
                "metallicFactor" : 0.4678899049758911,
                "metallicRoughnessTexture" : {
                    "index" : 2,
                    "texCoord" : 0
                }
            }
        },
        {
            "doubleSided" : true,
            "emissiveFactor" : [
                0,
                0,
                0
            ],
            "name" : "oko",
            "pbrMetallicRoughness" : {
                "baseColorTexture" : {
                    "index" : 3,
                    "texCoord" : 0
                },
                "metallicFactor" : 0,
                "roughnessFactor" : 0.5
            }
        },
        {
            "doubleSided" : true,
            "emissiveFactor" : [
                1,
                1,
                1
            ],
            "emissiveTexture" : {
                "index" : 4,
                "texCoord" : 0
            },
            "name" : "Material.007",
            "pbrMetallicRoughness" : {}
        }
    ],
    "meshes" : [
        {
            "name" : "Sphere.003",
            "primitives" : [
                {
                    "attributes" : {
                        "POSITION" : 0,
                        "NORMAL" : 1,
                        "TANGENT" : 2,
                        "TEXCOORD_0" : 3
                    },
                    "indices" : 4
                }
            ]
        },
        {
            "name" : "Plane",
            "primitives" : [
                {
                    "attributes" : {
                        "POSITION" : 5,
                        "NORMAL" : 6,
                        "TEXCOORD_0" : 7,
                        "JOINTS_0" : 8,
                        "WEIGHTS_0" : 9
                    },
                    "indices" : 10,
                    "material" : 0
                }
            ]
        },
        {
            "name" : "Sphere.008",
            "primitives" : [
                {
                    "attributes" : {
                        "POSITION" : 11,
                        "NORMAL" : 12,
                        "TANGENT" : 13,
                        "TEXCOORD_0" : 14
                    },
                    "indices" : 15,
                    "material" : 1
                }
            ]
        },
        {
            "name" : "Sphere.001",
            "primitives" : [
                {
                    "attributes" : {
                        "POSITION" : 16,
                        "NORMAL" : 17,
                        "TANGENT" : 18,
                        "TEXCOORD_0" : 19
                    },
                    "indices" : 20
                }
            ]
        },
        {
            "name" : "Sphere.007",
            "primitives" : [
                {
                    "attributes" : {
                        "POSITION" : 21,
                        "NORMAL" : 22,
                        "TANGENT" : 23,
                        "TEXCOORD_0" : 24
                    },
                    "indices" : 15,
                    "material" : 1
                }
            ]
        },
        {
            "name" : "Sphere.009",
            "primitives" : [
                {
                    "attributes" : {
                        "POSITION" : 25,
                        "NORMAL" : 26,
                        "TANGENT" : 27,
                        "TEXCOORD_0" : 28
                    },
                    "indices" : 29,
                    "material" : 2
                }
            ]
        }
    ],
    "textures" : [
        {
            "source" : 0
        },
        {
            "source" : 1
        },
        {
            "source" : 2
        },
        {
            "source" : 3
        },
        {
            "source" : 4
        }
    ],
    "images" : [
        {
            "mimeType" : "image/jpeg",
            "name" : "Fabric_Quilt_004_normal.jpg",
            "uri" : "Fabric_Quilt_004_normal_jpg.jpg"
        },
        {
            "mimeType" : "image/jpeg",
            "name" : "Fabric_Quilt_004_basecolor",
            "uri" : "Fabric_Quilt_004_basecolor.jpg"
        },
        {
            "mimeType" : "image/png",
            "name" : "Fabric_Quilt_004_roughness.jpg",
            "uri" : "Fabric_Quilt_004_roughness_jpg.png"
        },
        {
            "mimeType" : "image/jpeg",
            "name" : "eye_0089_c",
            "uri" : "eye_0089_c.jpg"
        },
        {
            "mimeType" : "image/png",
            "name" : "mozgan",
            "uri" : "mozgan.png"
        }
    ],
    "accessors" : [
        {
            "bufferView" : 0,
            "componentType" : 5126,
            "count" : 559,
            "max" : [
                0.9951650500297546,
                1,
                0.9999994039535522
            ],
            "min" : [
                -0.9999990463256836,
                -1,
                -0.9999987483024597
            ],
            "type" : "VEC3"
        },
        {
            "bufferView" : 1,
            "componentType" : 5126,
            "count" : 559,
            "type" : "VEC3"
        },
        {
            "bufferView" : 2,
            "componentType" : 5126,
            "count" : 559,
            "type" : "VEC4"
        },
        {
            "bufferView" : 3,
            "componentType" : 5126,
            "count" : 559,
            "type" : "VEC2"
        },
        {
            "bufferView" : 4,
            "componentType" : 5123,
            "count" : 2880,
            "type" : "SCALAR"
        },
        {
            "bufferView" : 5,
            "componentType" : 5126,
            "count" : 5116,
            "max" : [
                6.471476078033447,
                0.1216457337141037,
                6.075616836547852
            ],
            "min" : [
                -0.9036617279052734,
                -7.070102214813232,
                -6.182476997375488
            ],
            "type" : "VEC3"
        },
        {
            "bufferView" : 6,
            "componentType" : 5126,
            "count" : 5116,
            "type" : "VEC3"
        },
        {
            "bufferView" : 7,
            "componentType" : 5126,
            "count" : 5116,
            "type" : "VEC2"
        },
        {
            "bufferView" : 8,
            "componentType" : 5123,
            "count" : 5116,
            "type" : "VEC4"
        },
        {
            "bufferView" : 9,
            "componentType" : 5126,
            "count" : 5116,
            "type" : "VEC4"
        },
        {
            "bufferView" : 10,
            "componentType" : 5123,
            "count" : 30684,
            "type" : "SCALAR"
        },
        {
            "bufferView" : 11,
            "componentType" : 5126,
            "count" : 609,
            "max" : [
                0.9999997019767761,
                1,
                0.9999994039535522
            ],
            "min" : [
                -0.9999990463256836,
                -0.9238795042037964,
                -0.9999987483024597
            ],
            "type" : "VEC3"
        },
        {
            "bufferView" : 12,
            "componentType" : 5126,
            "count" : 609,
            "type" : "VEC3"
        },
        {
            "bufferView" : 13,
            "componentType" : 5126,
            "count" : 609,
            "type" : "VEC4"
        },
        {
            "bufferView" : 14,
            "componentType" : 5126,
            "count" : 609,
            "type" : "VEC2"
        },
        {
            "bufferView" : 15,
            "componentType" : 5123,
            "count" : 3138,
            "type" : "SCALAR"
        },
        {
            "bufferView" : 16,
            "componentType" : 5126,
            "count" : 609,
            "max" : [
                0.9999997019767761,
                1,
                0.9999994039535522
            ],
            "min" : [
                -0.9999990463256836,
                -0.9238795042037964,
                -0.9999987483024597
            ],
            "type" : "VEC3"
        },
        {
            "bufferView" : 17,
            "componentType" : 5126,
            "count" : 609,
            "type" : "VEC3"
        },
        {
            "bufferView" : 18,
            "componentType" : 5126,
            "count" : 609,
            "type" : "VEC4"
        },
        {
            "bufferView" : 19,
            "componentType" : 5126,
            "count" : 609,
            "type" : "VEC2"
        },
        {
            "bufferView" : 20,
            "componentType" : 5123,
            "count" : 3264,
            "type" : "SCALAR"
        },
        {
            "bufferView" : 21,
            "componentType" : 5126,
            "count" : 609,
            "max" : [
                0.9999997019767761,
                1,
                0.9999994039535522
            ],
            "min" : [
                -0.9999990463256836,
                -0.9238795042037964,
                -0.9999987483024597
            ],
            "type" : "VEC3"
        },
        {
            "bufferView" : 22,
            "componentType" : 5126,
            "count" : 609,
            "type" : "VEC3"
        },
        {
            "bufferView" : 23,
            "componentType" : 5126,
            "count" : 609,
            "type" : "VEC4"
        },
        {
            "bufferView" : 24,
            "componentType" : 5126,
            "count" : 609,
            "type" : "VEC2"
        },
        {
            "bufferView" : 25,
            "componentType" : 5126,
            "count" : 562,
            "max" : [
                0.9974546432495117,
                1,
                0.9999994039535522
            ],
            "min" : [
                -0.9999990463256836,
                -2.4467861652374268,
                -0.9999987483024597
            ],
            "type" : "VEC3"
        },
        {
            "bufferView" : 26,
            "componentType" : 5126,
            "count" : 562,
            "type" : "VEC3"
        },
        {
            "bufferView" : 27,
            "componentType" : 5126,
            "count" : 562,
            "type" : "VEC4"
        },
        {
            "bufferView" : 28,
            "componentType" : 5126,
            "count" : 562,
            "type" : "VEC2"
        },
        {
            "bufferView" : 29,
            "componentType" : 5123,
            "count" : 2826,
            "type" : "SCALAR"
        }
    ],
    "bufferViews" : [
        {
            "buffer" : 0,
            "byteLength" : 6708,
            "byteOffset" : 0
        },
        {
            "buffer" : 0,
            "byteLength" : 6708,
            "byteOffset" : 6708
        },
        {
            "buffer" : 0,
            "byteLength" : 8944,
            "byteOffset" : 13416
        },
        {
            "buffer" : 0,
            "byteLength" : 4472,
            "byteOffset" : 22360
        },
        {
            "buffer" : 0,
            "byteLength" : 5760,
            "byteOffset" : 26832
        },
        {
            "buffer" : 0,
            "byteLength" : 61392,
            "byteOffset" : 32592
        },
        {
            "buffer" : 0,
            "byteLength" : 61392,
            "byteOffset" : 93984
        },
        {
            "buffer" : 0,
            "byteLength" : 40928,
            "byteOffset" : 155376
        },
        {
            "buffer" : 0,
            "byteLength" : 40928,
            "byteOffset" : 196304
        },
        {
            "buffer" : 0,
            "byteLength" : 81856,
            "byteOffset" : 237232
        },
        {
            "buffer" : 0,
            "byteLength" : 61368,
            "byteOffset" : 319088
        },
        {
            "buffer" : 0,
            "byteLength" : 7308,
            "byteOffset" : 380456
        },
        {
            "buffer" : 0,
            "byteLength" : 7308,
            "byteOffset" : 387764
        },
        {
            "buffer" : 0,
            "byteLength" : 9744,
            "byteOffset" : 395072
        },
        {
            "buffer" : 0,
            "byteLength" : 4872,
            "byteOffset" : 404816
        },
        {
            "buffer" : 0,
            "byteLength" : 6276,
            "byteOffset" : 409688
        },
        {
            "buffer" : 0,
            "byteLength" : 7308,
            "byteOffset" : 415964
        },
        {
            "buffer" : 0,
            "byteLength" : 7308,
            "byteOffset" : 423272
        },
        {
            "buffer" : 0,
            "byteLength" : 9744,
            "byteOffset" : 430580
        },
        {
            "buffer" : 0,
            "byteLength" : 4872,
            "byteOffset" : 440324
        },
        {
            "buffer" : 0,
            "byteLength" : 6528,
            "byteOffset" : 445196
        },
        {
            "buffer" : 0,
            "byteLength" : 7308,
            "byteOffset" : 451724
        },
        {
            "buffer" : 0,
            "byteLength" : 7308,
            "byteOffset" : 459032
        },
        {
            "buffer" : 0,
            "byteLength" : 9744,
            "byteOffset" : 466340
        },
        {
            "buffer" : 0,
            "byteLength" : 4872,
            "byteOffset" : 476084
        },
        {
            "buffer" : 0,
            "byteLength" : 6744,
            "byteOffset" : 480956
        },
        {
            "buffer" : 0,
            "byteLength" : 6744,
            "byteOffset" : 487700
        },
        {
            "buffer" : 0,
            "byteLength" : 8992,
            "byteOffset" : 494444
        },
        {
            "buffer" : 0,
            "byteLength" : 4496,
            "byteOffset" : 503436
        },
        {
            "buffer" : 0,
            "byteLength" : 5652,
            "byteOffset" : 507932
        }
    ],
    "buffers" : [
        {
            "byteLength" : 513584,
            "uri" : "Po\u0161ast1.bin"
        }
    ]
}
