{
    "asset" : {
        "generator" : "Khronos glTF Blender I/O v1.2.75",
        "version" : "2.0"
    },
    "scene" : 0,
    "scenes" : [
        {
            "name" : "Scene",
            "nodes" : [
                0,
                1,
                2,
                3,
                7,
                8
            ]
        }
    ],
    "nodes" : [
        {
            "name" : "Light",
            "rotation" : [
                0.16907575726509094,
                0.7558803558349609,
                -0.27217137813568115,
                0.570947527885437
            ],
            "translation" : [
                4.076245307922363,
                5.903861999511719,
                -1.0054539442062378
            ]
        },
        {
            "name" : "Camera",
            "rotation" : [
                0.20492881536483765,
                0.7950598001480103,
                -0.40125933289527893,
                0.40604808926582336
            ],
            "translation" : [
                2.108084201812744,
                2.3012936115264893,
                -1.2254798412322998
            ]
        },
        {
            "mesh" : 0,
            "name" : "Tf2_shahanshah",
            "rotation" : [
                0.16655635833740234,
                0.16655628383159637,
                -0.6872110366821289,
                0.6872110366821289
            ],
            "translation" : [
                0,
                0,
                -5.734691143035889
            ]
        },
        {
            "mesh" : 1,
            "name" : "Tf2_shahanshah_2",
            "rotation" : [
                -0.183011993765831,
                -0.183011993765831,
                -0.6830129027366638,
                0.6830129027366638
            ],
            "translation" : [
                0,
                0,
                -5.3647637367248535
            ]
        },
        {
            "mesh" : 2,
            "name" : "Blade",
            "scale" : [
                13.018441200256348,
                5.634912014007568,
                13.018441200256348
            ],
            "translation" : [
                0,
                4.025474548339844,
                0
            ]
        },
        {
            "mesh" : 3,
            "name" : "Endcap",
            "scale" : [
                13.018441200256348,
                5.634912014007568,
                13.018441200256348
            ],
            "translation" : [
                0,
                -0.75013267993927,
                0.32406383752822876
            ]
        },
        {
            "mesh" : 4,
            "name" : "Handguard",
            "scale" : [
                13.018441200256348,
                5.634912014007568,
                13.018441200256348
            ],
            "translation" : [
                0,
                1.2584092617034912,
                0
            ]
        },
        {
            "children" : [
                4,
                5,
                6
            ],
            "mesh" : 5,
            "name" : "Shahanshah",
            "rotation" : [
                0.6184009909629822,
                0.05857119336724281,
                0.0738944262266159,
                0.7801854014396667
            ],
            "scale" : [
                0.07681410759687424,
                0.1774650663137436,
                0.07681410759687424
            ],
            "translation" : [
                0,
                0.2064087986946106,
                0
            ]
        },
        {
            "mesh" : 6,
            "name" : "Plane",
            "scale" : [
                4.75679874420166,
                4.75679874420166,
                4.75679874420166
            ]
        }
    ],
    "materials" : [
        {
            "alphaMode" : "BLEND",
            "doubleSided" : true,
            "emissiveFactor" : [
                0,
                0,
                0
            ],
            "name" : "Tf2_shahanshah",
            "pbrMetallicRoughness" : {
                "metallicFactor" : 0,
                "roughnessFactor" : 0.5
            }
        },
        {
            "alphaMode" : "BLEND",
            "doubleSided" : true,
            "emissiveFactor" : [
                0,
                0,
                0
            ],
            "name" : "Tf2_shahanshah_2",
            "pbrMetallicRoughness" : {
                "metallicFactor" : 0,
                "roughnessFactor" : 0.5
            }
        },
        {
            "doubleSided" : true,
            "emissiveFactor" : [
                0,
                0,
                0
            ],
            "name" : "Material.002",
            "pbrMetallicRoughness" : {
                "baseColorFactor" : [
                    0.45814111828804016,
                    0.45814111828804016,
                    0.45814111828804016,
                    1
                ],
                "metallicFactor" : 0,
                "roughnessFactor" : 0.4000000059604645
            }
        },
        {
            "doubleSided" : true,
            "emissiveFactor" : [
                0,
                0,
                0
            ],
            "name" : "Material.001",
            "pbrMetallicRoughness" : {
                "baseColorFactor" : [
                    0.8000000715255737,
                    0.2892952263355255,
                    0.041366904973983765,
                    1
                ],
                "metallicFactor" : 0,
                "roughnessFactor" : 0.5
            }
        },
        {
            "doubleSided" : true,
            "emissiveFactor" : [
                0,
                0,
                0
            ],
            "name" : "Material.003",
            "pbrMetallicRoughness" : {
                "baseColorFactor" : [
                    0.018315961584448814,
                    0.005458516534417868,
                    0.0010149033041670918,
                    1
                ],
                "metallicFactor" : 0,
                "roughnessFactor" : 0.5
            }
        },
        {
            "doubleSided" : true,
            "emissiveFactor" : [
                0,
                0,
                0
            ],
            "name" : "Material.004",
            "pbrMetallicRoughness" : {
                "baseColorFactor" : [
                    0.07247582077980042,
                    0.019538765773177147,
                    0.004864775110036135,
                    1
                ],
                "metallicFactor" : 0,
                "roughnessFactor" : 0.5
            }
        }
    ],
    "meshes" : [
        {
            "name" : "Tf2_shahanshah",
            "primitives" : [
                {
                    "attributes" : {
                        "POSITION" : 0,
                        "NORMAL" : 1,
                        "TEXCOORD_0" : 2
                    },
                    "indices" : 3,
                    "material" : 0
                }
            ]
        },
        {
            "name" : "Tf2_shahanshah_2",
            "primitives" : [
                {
                    "attributes" : {
                        "POSITION" : 4,
                        "NORMAL" : 5,
                        "TEXCOORD_0" : 6
                    },
                    "indices" : 3,
                    "material" : 1
                }
            ]
        },
        {
            "name" : "Cube.001",
            "primitives" : [
                {
                    "attributes" : {
                        "POSITION" : 7,
                        "NORMAL" : 8,
                        "TEXCOORD_0" : 9
                    },
                    "indices" : 10,
                    "material" : 2
                }
            ]
        },
        {
            "name" : "Cube.004",
            "primitives" : [
                {
                    "attributes" : {
                        "POSITION" : 11,
                        "NORMAL" : 12,
                        "TEXCOORD_0" : 13
                    },
                    "indices" : 14,
                    "material" : 3
                }
            ]
        },
        {
            "name" : "Cube.002",
            "primitives" : [
                {
                    "attributes" : {
                        "POSITION" : 15,
                        "NORMAL" : 16,
                        "TEXCOORD_0" : 17
                    },
                    "indices" : 18,
                    "material" : 3
                }
            ]
        },
        {
            "name" : "Handle",
            "primitives" : [
                {
                    "attributes" : {
                        "POSITION" : 19,
                        "NORMAL" : 20,
                        "TEXCOORD_0" : 21
                    },
                    "indices" : 22,
                    "material" : 4
                }
            ]
        },
        {
            "name" : "Plane",
            "primitives" : [
                {
                    "attributes" : {
                        "POSITION" : 23,
                        "NORMAL" : 24,
                        "TEXCOORD_0" : 25
                    },
                    "indices" : 3,
                    "material" : 5
                }
            ]
        }
    ],
    "accessors" : [
        {
            "bufferView" : 0,
            "componentType" : 5126,
            "count" : 4,
            "max" : [
                0.6666666865348816,
                0,
                0.5
            ],
            "min" : [
                -0.6666666865348816,
                0,
                -0.5
            ],
            "type" : "VEC3"
        },
        {
            "bufferView" : 1,
            "componentType" : 5126,
            "count" : 4,
            "type" : "VEC3"
        },
        {
            "bufferView" : 2,
            "componentType" : 5126,
            "count" : 4,
            "type" : "VEC2"
        },
        {
            "bufferView" : 3,
            "componentType" : 5123,
            "count" : 6,
            "type" : "SCALAR"
        },
        {
            "bufferView" : 4,
            "componentType" : 5126,
            "count" : 4,
            "max" : [
                0.6666666865348816,
                0,
                0.5
            ],
            "min" : [
                -0.6666666865348816,
                0,
                -0.5
            ],
            "type" : "VEC3"
        },
        {
            "bufferView" : 5,
            "componentType" : 5126,
            "count" : 4,
            "type" : "VEC3"
        },
        {
            "bufferView" : 6,
            "componentType" : 5126,
            "count" : 4,
            "type" : "VEC2"
        },
        {
            "bufferView" : 7,
            "componentType" : 5126,
            "count" : 128,
            "max" : [
                0.017984922975301743,
                0.3722935616970062,
                0.06363663822412491
            ],
            "min" : [
                -0.022878745570778847,
                -0.44646358489990234,
                -0.20191559195518494
            ],
            "type" : "VEC3"
        },
        {
            "bufferView" : 8,
            "componentType" : 5126,
            "count" : 128,
            "type" : "VEC3"
        },
        {
            "bufferView" : 9,
            "componentType" : 5126,
            "count" : 128,
            "type" : "VEC2"
        },
        {
            "bufferView" : 10,
            "componentType" : 5123,
            "count" : 312,
            "type" : "SCALAR"
        },
        {
            "bufferView" : 11,
            "componentType" : 5126,
            "count" : 128,
            "max" : [
                0.040392111986875534,
                0.032414089888334274,
                0.10335385054349899
            ],
            "min" : [
                -0.040392111986875534,
                -0.04014413058757782,
                -0.0730527862906456
            ],
            "type" : "VEC3"
        },
        {
            "bufferView" : 12,
            "componentType" : 5126,
            "count" : 128,
            "type" : "VEC3"
        },
        {
            "bufferView" : 13,
            "componentType" : 5126,
            "count" : 128,
            "type" : "VEC2"
        },
        {
            "bufferView" : 14,
            "componentType" : 5123,
            "count" : 372,
            "type" : "SCALAR"
        },
        {
            "bufferView" : 15,
            "componentType" : 5126,
            "count" : 698,
            "max" : [
                0.044593870639801025,
                0.04784057289361954,
                0.2133922129869461
            ],
            "min" : [
                -0.04459387809038162,
                -0.006240688264369965,
                -0.21371740102767944
            ],
            "type" : "VEC3"
        },
        {
            "bufferView" : 16,
            "componentType" : 5126,
            "count" : 698,
            "type" : "VEC3"
        },
        {
            "bufferView" : 17,
            "componentType" : 5126,
            "count" : 698,
            "type" : "VEC2"
        },
        {
            "bufferView" : 18,
            "componentType" : 5123,
            "count" : 2148,
            "type" : "SCALAR"
        },
        {
            "bufferView" : 19,
            "componentType" : 5126,
            "count" : 403,
            "max" : [
                0.5262918472290039,
                1.2446600198745728,
                0.9961024522781372
            ],
            "min" : [
                -0.5262918472290039,
                -0.6652600765228271,
                -0.9259863495826721
            ],
            "type" : "VEC3"
        },
        {
            "bufferView" : 20,
            "componentType" : 5126,
            "count" : 403,
            "type" : "VEC3"
        },
        {
            "bufferView" : 21,
            "componentType" : 5126,
            "count" : 403,
            "type" : "VEC2"
        },
        {
            "bufferView" : 22,
            "componentType" : 5123,
            "count" : 978,
            "type" : "SCALAR"
        },
        {
            "bufferView" : 23,
            "componentType" : 5126,
            "count" : 4,
            "max" : [
                1,
                0,
                1
            ],
            "min" : [
                -1,
                0,
                -1
            ],
            "type" : "VEC3"
        },
        {
            "bufferView" : 24,
            "componentType" : 5126,
            "count" : 4,
            "type" : "VEC3"
        },
        {
            "bufferView" : 25,
            "componentType" : 5126,
            "count" : 4,
            "type" : "VEC2"
        }
    ],
    "bufferViews" : [
        {
            "buffer" : 0,
            "byteLength" : 48,
            "byteOffset" : 0
        },
        {
            "buffer" : 0,
            "byteLength" : 48,
            "byteOffset" : 48
        },
        {
            "buffer" : 0,
            "byteLength" : 32,
            "byteOffset" : 96
        },
        {
            "buffer" : 0,
            "byteLength" : 12,
            "byteOffset" : 128
        },
        {
            "buffer" : 0,
            "byteLength" : 48,
            "byteOffset" : 140
        },
        {
            "buffer" : 0,
            "byteLength" : 48,
            "byteOffset" : 188
        },
        {
            "buffer" : 0,
            "byteLength" : 32,
            "byteOffset" : 236
        },
        {
            "buffer" : 0,
            "byteLength" : 1536,
            "byteOffset" : 268
        },
        {
            "buffer" : 0,
            "byteLength" : 1536,
            "byteOffset" : 1804
        },
        {
            "buffer" : 0,
            "byteLength" : 1024,
            "byteOffset" : 3340
        },
        {
            "buffer" : 0,
            "byteLength" : 624,
            "byteOffset" : 4364
        },
        {
            "buffer" : 0,
            "byteLength" : 1536,
            "byteOffset" : 4988
        },
        {
            "buffer" : 0,
            "byteLength" : 1536,
            "byteOffset" : 6524
        },
        {
            "buffer" : 0,
            "byteLength" : 1024,
            "byteOffset" : 8060
        },
        {
            "buffer" : 0,
            "byteLength" : 744,
            "byteOffset" : 9084
        },
        {
            "buffer" : 0,
            "byteLength" : 8376,
            "byteOffset" : 9828
        },
        {
            "buffer" : 0,
            "byteLength" : 8376,
            "byteOffset" : 18204
        },
        {
            "buffer" : 0,
            "byteLength" : 5584,
            "byteOffset" : 26580
        },
        {
            "buffer" : 0,
            "byteLength" : 4296,
            "byteOffset" : 32164
        },
        {
            "buffer" : 0,
            "byteLength" : 4836,
            "byteOffset" : 36460
        },
        {
            "buffer" : 0,
            "byteLength" : 4836,
            "byteOffset" : 41296
        },
        {
            "buffer" : 0,
            "byteLength" : 3224,
            "byteOffset" : 46132
        },
        {
            "buffer" : 0,
            "byteLength" : 1956,
            "byteOffset" : 49356
        },
        {
            "buffer" : 0,
            "byteLength" : 48,
            "byteOffset" : 51312
        },
        {
            "buffer" : 0,
            "byteLength" : 48,
            "byteOffset" : 51360
        },
        {
            "buffer" : 0,
            "byteLength" : 32,
            "byteOffset" : 51408
        }
    ],
    "buffers" : [
        {
            "byteLength" : 51440,
            "uri" : "data:application/octet-stream;base64,"
        }
    ]
}
