{
    "asset" : {
        "generator" : "Khronos glTF Blender I/O v1.2.75",
        "version" : "2.0"
    },
    "scene" : 0,
    "scenes" : [
        {
            "name" : "Scene",
            "nodes" : [
                0,
                2,
                3,
                4,
                8,
                9
            ]
        }
    ],
    "nodes" : [
        {
            "name" : "Light",
            "rotation" : [
                0.16907575726509094,
                0.7558803558349609,
                -0.27217137813568115,
                0.570947527885437
            ],
            "translation" : [
                4.076245307922363,
                5.903861999511719,
                -1.0054539442062378
            ]
        },
        {
            "camera" : 0,
            "name" : "Camera_Orientation",
            "rotation" : [
                -0.7071067690849304,
                0,
                0,
                0.7071067690849304
            ]
        },
        {
            "children" : [
                1
            ],
            "name" : "Camera",
            "rotation" : [
                0.20492881536483765,
                0.7950598001480103,
                -0.40125933289527893,
                0.40604808926582336
            ],
            "translation" : [
                2.108084201812744,
                2.3012936115264893,
                -1.2254798412322998
            ]
        },
        {
            "mesh" : 0,
            "name" : "Tf2_shahanshah",
            "rotation" : [
                0.16655635833740234,
                0.16655628383159637,
                -0.6872110366821289,
                0.6872110366821289
            ],
            "translation" : [
                0,
                0,
                -5.734691143035889
            ]
        },
        {
            "mesh" : 1,
            "name" : "Tf2_shahanshah_2",
            "rotation" : [
                -0.183011993765831,
                -0.183011993765831,
                -0.6830129027366638,
                0.6830129027366638
            ],
            "translation" : [
                0,
                0,
                -5.3647637367248535
            ]
        },
        {
            "mesh" : 2,
            "name" : "Blade",
            "scale" : [
                13.018441200256348,
                5.634912014007568,
                13.018441200256348
            ],
            "translation" : [
                0,
                4.025474548339844,
                0
            ]
        },
        {
            "mesh" : 3,
            "name" : "Endcap",
            "scale" : [
                13.018441200256348,
                5.634912014007568,
                13.018441200256348
            ],
            "translation" : [
                0,
                -0.75013267993927,
                0.32406383752822876
            ]
        },
        {
            "mesh" : 4,
            "name" : "Handguard",
            "scale" : [
                13.018441200256348,
                5.634912014007568,
                13.018441200256348
            ],
            "translation" : [
                0,
                1.2584092617034912,
                0
            ]
        },
        {
            "children" : [
                5,
                6,
                7
            ],
            "mesh" : 5,
            "name" : "Shahanshah",
            "rotation" : [
                0.6184009909629822,
                0.05857119336724281,
                0.0738944262266159,
                0.7801854014396667
            ],
            "scale" : [
                0.07681410759687424,
                0.1774650663137436,
                0.07681410759687424
            ],
            "translation" : [
                0,
                0.2064087986946106,
                0
            ]
        },
        {
            "mesh" : 6,
            "name" : "Plane",
            "scale" : [
                4.75679874420166,
                4.75679874420166,
                4.75679874420166
            ]
        }
    ],
    "cameras" : [
        {
            "name" : "Camera",
            "perspective" : {
                "yfov" : 0.39959652046304894,
                "zfar" : 100,
                "znear" : 0.10000000149011612
            },
            "type" : "perspective"
        }
    ],
    "materials" : [
        {
            "alphaMode" : "BLEND",
            "doubleSided" : true,
            "emissiveFactor" : [
                0,
                0,
                0
            ],
            "name" : "Tf2_shahanshah",
            "pbrMetallicRoughness" : {
                "metallicFactor" : 0,
                "roughnessFactor" : 0.5
            }
        },
        {
            "alphaMode" : "BLEND",
            "doubleSided" : true,
            "emissiveFactor" : [
                0,
                0,
                0
            ],
            "name" : "Tf2_shahanshah_2",
            "pbrMetallicRoughness" : {
                "metallicFactor" : 0,
                "roughnessFactor" : 0.5
            }
        },
        {
            "doubleSided" : true,
            "emissiveFactor" : [
                0,
                0,
                0
            ],
            "name" : "Material.002",
            "pbrMetallicRoughness" : {
                "baseColorFactor" : [
                    0.45814111828804016,
                    0.45814111828804016,
                    0.45814111828804016,
                    1
                ],
                "metallicFactor" : 0,
                "roughnessFactor" : 0.4000000059604645
            }
        },
        {
            "doubleSided" : true,
            "emissiveFactor" : [
                0,
                0,
                0
            ],
            "name" : "Material.001",
            "pbrMetallicRoughness" : {
                "baseColorFactor" : [
                    0.8000000715255737,
                    0.2892952263355255,
                    0.041366904973983765,
                    1
                ],
                "metallicFactor" : 0,
                "roughnessFactor" : 0.5
            }
        },
        {
            "doubleSided" : true,
            "emissiveFactor" : [
                0,
                0,
                0
            ],
            "name" : "Material.003",
            "pbrMetallicRoughness" : {
                "baseColorFactor" : [
                    0.018315961584448814,
                    0.005458516534417868,
                    0.0010149033041670918,
                    1
                ],
                "metallicFactor" : 0,
                "roughnessFactor" : 0.5
            }
        },
        {
            "doubleSided" : true,
            "emissiveFactor" : [
                0,
                0,
                0
            ],
            "name" : "Material.004",
            "pbrMetallicRoughness" : {
                "baseColorFactor" : [
                    0.07247582077980042,
                    0.019538765773177147,
                    0.004864775110036135,
                    1
                ],
                "metallicFactor" : 0,
                "roughnessFactor" : 0.5
            }
        }
    ],
    "meshes" : [
        {
            "name" : "Tf2_shahanshah",
            "primitives" : [
                {
                    "attributes" : {
                        "POSITION" : 0,
                        "NORMAL" : 1,
                        "TANGENT" : 2,
                        "TEXCOORD_0" : 3
                    },
                    "indices" : 4,
                    "material" : 0
                }
            ]
        },
        {
            "name" : "Tf2_shahanshah_2",
            "primitives" : [
                {
                    "attributes" : {
                        "POSITION" : 5,
                        "NORMAL" : 6,
                        "TANGENT" : 7,
                        "TEXCOORD_0" : 8
                    },
                    "indices" : 4,
                    "material" : 1
                }
            ]
        },
        {
            "name" : "Cube.001",
            "primitives" : [
                {
                    "attributes" : {
                        "POSITION" : 9,
                        "NORMAL" : 10,
                        "TANGENT" : 11,
                        "TEXCOORD_0" : 12
                    },
                    "indices" : 13,
                    "material" : 2
                }
            ]
        },
        {
            "name" : "Cube.004",
            "primitives" : [
                {
                    "attributes" : {
                        "POSITION" : 14,
                        "NORMAL" : 15,
                        "TEXCOORD_0" : 16
                    },
                    "indices" : 17,
                    "material" : 3
                }
            ]
        },
        {
            "name" : "Cube.002",
            "primitives" : [
                {
                    "attributes" : {
                        "POSITION" : 18,
                        "NORMAL" : 19,
                        "TEXCOORD_0" : 20
                    },
                    "indices" : 21,
                    "material" : 3
                }
            ]
        },
        {
            "name" : "Handle",
            "primitives" : [
                {
                    "attributes" : {
                        "POSITION" : 22,
                        "NORMAL" : 23,
                        "TANGENT" : 24,
                        "TEXCOORD_0" : 25
                    },
                    "indices" : 26,
                    "material" : 4
                }
            ]
        },
        {
            "name" : "Plane",
            "primitives" : [
                {
                    "attributes" : {
                        "POSITION" : 27,
                        "NORMAL" : 28,
                        "TANGENT" : 29,
                        "TEXCOORD_0" : 30
                    },
                    "indices" : 4,
                    "material" : 5
                }
            ]
        }
    ],
    "accessors" : [
        {
            "bufferView" : 0,
            "componentType" : 5126,
            "count" : 4,
            "max" : [
                0.6666666865348816,
                0,
                0.5
            ],
            "min" : [
                -0.6666666865348816,
                0,
                -0.5
            ],
            "type" : "VEC3"
        },
        {
            "bufferView" : 1,
            "componentType" : 5126,
            "count" : 4,
            "type" : "VEC3"
        },
        {
            "bufferView" : 2,
            "componentType" : 5126,
            "count" : 4,
            "type" : "VEC4"
        },
        {
            "bufferView" : 3,
            "componentType" : 5126,
            "count" : 4,
            "type" : "VEC2"
        },
        {
            "bufferView" : 4,
            "componentType" : 5123,
            "count" : 6,
            "type" : "SCALAR"
        },
        {
            "bufferView" : 5,
            "componentType" : 5126,
            "count" : 4,
            "max" : [
                0.6666666865348816,
                0,
                0.5
            ],
            "min" : [
                -0.6666666865348816,
                0,
                -0.5
            ],
            "type" : "VEC3"
        },
        {
            "bufferView" : 6,
            "componentType" : 5126,
            "count" : 4,
            "type" : "VEC3"
        },
        {
            "bufferView" : 7,
            "componentType" : 5126,
            "count" : 4,
            "type" : "VEC4"
        },
        {
            "bufferView" : 8,
            "componentType" : 5126,
            "count" : 4,
            "type" : "VEC2"
        },
        {
            "bufferView" : 9,
            "componentType" : 5126,
            "count" : 128,
            "max" : [
                0.017984922975301743,
                0.3722935616970062,
                0.06363663822412491
            ],
            "min" : [
                -0.022878745570778847,
                -0.44646358489990234,
                -0.20191559195518494
            ],
            "type" : "VEC3"
        },
        {
            "bufferView" : 10,
            "componentType" : 5126,
            "count" : 128,
            "type" : "VEC3"
        },
        {
            "bufferView" : 11,
            "componentType" : 5126,
            "count" : 128,
            "type" : "VEC4"
        },
        {
            "bufferView" : 12,
            "componentType" : 5126,
            "count" : 128,
            "type" : "VEC2"
        },
        {
            "bufferView" : 13,
            "componentType" : 5123,
            "count" : 312,
            "type" : "SCALAR"
        },
        {
            "bufferView" : 14,
            "componentType" : 5126,
            "count" : 128,
            "max" : [
                0.040392111986875534,
                0.032414089888334274,
                0.10335385054349899
            ],
            "min" : [
                -0.040392111986875534,
                -0.04014413058757782,
                -0.0730527862906456
            ],
            "type" : "VEC3"
        },
        {
            "bufferView" : 15,
            "componentType" : 5126,
            "count" : 128,
            "type" : "VEC3"
        },
        {
            "bufferView" : 16,
            "componentType" : 5126,
            "count" : 128,
            "type" : "VEC2"
        },
        {
            "bufferView" : 17,
            "componentType" : 5123,
            "count" : 372,
            "type" : "SCALAR"
        },
        {
            "bufferView" : 18,
            "componentType" : 5126,
            "count" : 698,
            "max" : [
                0.044593870639801025,
                0.04784057289361954,
                0.2133922129869461
            ],
            "min" : [
                -0.04459387809038162,
                -0.006240688264369965,
                -0.21371740102767944
            ],
            "type" : "VEC3"
        },
        {
            "bufferView" : 19,
            "componentType" : 5126,
            "count" : 698,
            "type" : "VEC3"
        },
        {
            "bufferView" : 20,
            "componentType" : 5126,
            "count" : 698,
            "type" : "VEC2"
        },
        {
            "bufferView" : 21,
            "componentType" : 5123,
            "count" : 2148,
            "type" : "SCALAR"
        },
        {
            "bufferView" : 22,
            "componentType" : 5126,
            "count" : 403,
            "max" : [
                0.5262918472290039,
                1.2446600198745728,
                0.9961024522781372
            ],
            "min" : [
                -0.5262918472290039,
                -0.6652600765228271,
                -0.9259863495826721
            ],
            "type" : "VEC3"
        },
        {
            "bufferView" : 23,
            "componentType" : 5126,
            "count" : 403,
            "type" : "VEC3"
        },
        {
            "bufferView" : 24,
            "componentType" : 5126,
            "count" : 403,
            "type" : "VEC4"
        },
        {
            "bufferView" : 25,
            "componentType" : 5126,
            "count" : 403,
            "type" : "VEC2"
        },
        {
            "bufferView" : 26,
            "componentType" : 5123,
            "count" : 978,
            "type" : "SCALAR"
        },
        {
            "bufferView" : 27,
            "componentType" : 5126,
            "count" : 4,
            "max" : [
                1,
                0,
                1
            ],
            "min" : [
                -1,
                0,
                -1
            ],
            "type" : "VEC3"
        },
        {
            "bufferView" : 28,
            "componentType" : 5126,
            "count" : 4,
            "type" : "VEC3"
        },
        {
            "bufferView" : 29,
            "componentType" : 5126,
            "count" : 4,
            "type" : "VEC4"
        },
        {
            "bufferView" : 30,
            "componentType" : 5126,
            "count" : 4,
            "type" : "VEC2"
        }
    ],
    "bufferViews" : [
        {
            "buffer" : 0,
            "byteLength" : 48,
            "byteOffset" : 0
        },
        {
            "buffer" : 0,
            "byteLength" : 48,
            "byteOffset" : 48
        },
        {
            "buffer" : 0,
            "byteLength" : 64,
            "byteOffset" : 96
        },
        {
            "buffer" : 0,
            "byteLength" : 32,
            "byteOffset" : 160
        },
        {
            "buffer" : 0,
            "byteLength" : 12,
            "byteOffset" : 192
        },
        {
            "buffer" : 0,
            "byteLength" : 48,
            "byteOffset" : 204
        },
        {
            "buffer" : 0,
            "byteLength" : 48,
            "byteOffset" : 252
        },
        {
            "buffer" : 0,
            "byteLength" : 64,
            "byteOffset" : 300
        },
        {
            "buffer" : 0,
            "byteLength" : 32,
            "byteOffset" : 364
        },
        {
            "buffer" : 0,
            "byteLength" : 1536,
            "byteOffset" : 396
        },
        {
            "buffer" : 0,
            "byteLength" : 1536,
            "byteOffset" : 1932
        },
        {
            "buffer" : 0,
            "byteLength" : 2048,
            "byteOffset" : 3468
        },
        {
            "buffer" : 0,
            "byteLength" : 1024,
            "byteOffset" : 5516
        },
        {
            "buffer" : 0,
            "byteLength" : 624,
            "byteOffset" : 6540
        },
        {
            "buffer" : 0,
            "byteLength" : 1536,
            "byteOffset" : 7164
        },
        {
            "buffer" : 0,
            "byteLength" : 1536,
            "byteOffset" : 8700
        },
        {
            "buffer" : 0,
            "byteLength" : 1024,
            "byteOffset" : 10236
        },
        {
            "buffer" : 0,
            "byteLength" : 744,
            "byteOffset" : 11260
        },
        {
            "buffer" : 0,
            "byteLength" : 8376,
            "byteOffset" : 12004
        },
        {
            "buffer" : 0,
            "byteLength" : 8376,
            "byteOffset" : 20380
        },
        {
            "buffer" : 0,
            "byteLength" : 5584,
            "byteOffset" : 28756
        },
        {
            "buffer" : 0,
            "byteLength" : 4296,
            "byteOffset" : 34340
        },
        {
            "buffer" : 0,
            "byteLength" : 4836,
            "byteOffset" : 38636
        },
        {
            "buffer" : 0,
            "byteLength" : 4836,
            "byteOffset" : 43472
        },
        {
            "buffer" : 0,
            "byteLength" : 6448,
            "byteOffset" : 48308
        },
        {
            "buffer" : 0,
            "byteLength" : 3224,
            "byteOffset" : 54756
        },
        {
            "buffer" : 0,
            "byteLength" : 1956,
            "byteOffset" : 57980
        },
        {
            "buffer" : 0,
            "byteLength" : 48,
            "byteOffset" : 59936
        },
        {
            "buffer" : 0,
            "byteLength" : 48,
            "byteOffset" : 59984
        },
        {
            "buffer" : 0,
            "byteLength" : 64,
            "byteOffset" : 60032
        },
        {
            "buffer" : 0,
            "byteLength" : 32,
            "byteOffset" : 60096
        }
    ],
    "buffers" : [
        {
            "byteLength" : 60128,
            "uri" : "test1.bin"
        }
    ]
}
